<svg width="24" height="24" viewBox="0 0 24 24" fill="none" xmlns="http://www.w3.org/2000/svg">
<g clip-path="url(#clip0_129:3488)">
<path d="M12 0C9.62663 0 7.30655 0.703788 5.33316 2.02236C3.35977 3.34094 1.8217 5.21509 0.913451 7.4078C0.00519943 9.60051 -0.232441 12.0133 0.230582 14.3411C0.693605 16.6689 1.83649 18.8071 3.51472 20.4853C5.19295 22.1635 7.33115 23.3064 9.65892 23.7694C11.9867 24.2324 14.3995 23.9948 16.5922 23.0866C18.7849 22.1783 20.6591 20.6402 21.9776 18.6668C23.2962 16.6935 24 14.3734 24 12C24 8.8174 22.7357 5.76515 20.4853 3.51472C18.2348 1.26428 15.1826 0 12 0V0ZM16.658 14.9C14.2987 17.9667 12.3037 19.5 10.673 19.5C9.66101 19.5 8.80567 18.5667 8.10701 16.7C7.64034 14.9887 7.17367 13.2777 6.70701 11.567C6.18767 9.70033 5.63067 8.767 5.03601 8.767C4.54428 8.96979 4.08556 9.24482 3.67501 9.583L2.85901 8.533C3.71501 7.78233 4.55867 7.03067 5.39001 6.278C6.09297 5.5397 6.98012 5.00223 7.96001 4.721C9.31001 4.58767 10.141 5.51 10.453 7.488C10.7863 9.62133 11.0197 10.946 11.153 11.462C11.5417 13.23 11.97 14.1137 12.438 14.113C12.8007 14.113 13.3457 13.5397 14.073 12.393C14.6441 11.613 15.0423 10.7201 15.241 9.774C15.345 8.78533 14.9557 8.29033 14.073 8.289C13.6301 8.29515 13.1932 8.3918 12.789 8.573C13.6423 5.78167 15.2707 4.425 17.674 4.503C19.456 4.555 20.296 5.71067 20.194 7.97C20.1167 9.65667 18.938 11.9667 16.658 14.9Z" fill="#F2F1ED"/>
</g>
<defs>
<clipPath id="clip0_129:3488">
<rect width="24" height="24" fill="white"/>
</clipPath>
</defs>
</svg>
