<svg width="24" height="24" viewBox="0 0 24 24" fill="none" xmlns="http://www.w3.org/2000/svg">
<g clip-path="url(#clip0_129:3486)">
<path d="M12 0C9.62663 0 7.30655 0.703788 5.33316 2.02236C3.35977 3.34094 1.8217 5.21509 0.913451 7.4078C0.00519943 9.60051 -0.232441 12.0133 0.230582 14.3411C0.693605 16.6689 1.83649 18.8071 3.51472 20.4853C5.19295 22.1635 7.33115 23.3064 9.65892 23.7694C11.9867 24.2324 14.3995 23.9948 16.5922 23.0866C18.7849 22.1783 20.6591 20.6402 21.9776 18.6668C23.2962 16.6935 24 14.3734 24 12C24 8.8174 22.7357 5.76515 20.4853 3.51472C18.2348 1.26428 15.1826 0 12 0V0ZM7.50001 15.5C6.80777 15.5 6.13108 15.2947 5.55551 14.9101C4.97994 14.5256 4.53133 13.9789 4.26643 13.3394C4.00152 12.6999 3.93221 11.9961 4.06726 11.3172C4.20231 10.6383 4.53565 10.0146 5.02513 9.52513C5.51462 9.03564 6.13826 8.7023 6.81719 8.56725C7.49612 8.4322 8.19986 8.50151 8.8394 8.76642C9.47894 9.03133 10.0256 9.47993 10.4101 10.0555C10.7947 10.6311 11 11.3078 11 12C11 12.9283 10.6313 13.8185 9.97488 14.4749C9.3185 15.1313 8.42826 15.5 7.50001 15.5ZM16.5 15.5C15.8078 15.5 15.1311 15.2947 14.5555 14.9101C13.9799 14.5256 13.5313 13.9789 13.2664 13.3394C13.0015 12.6999 12.9322 11.9961 13.0673 11.3172C13.2023 10.6383 13.5356 10.0146 14.0251 9.52513C14.5146 9.03564 15.1383 8.7023 15.8172 8.56725C16.4961 8.4322 17.1999 8.50151 17.8394 8.76642C18.4789 9.03133 19.0256 9.47993 19.4101 10.0555C19.7947 10.6311 20 11.3078 20 12C20 12.9283 19.6313 13.8185 18.9749 14.4749C18.3185 15.1313 17.4283 15.5 16.5 15.5Z" fill="#F2F1ED"/>
</g>
<defs>
<clipPath id="clip0_129:3486">
<rect width="24" height="24" fill="white"/>
</clipPath>
</defs>
</svg>
