<?xml version="1.0" encoding="utf-8"?>
<!-- Generator: Adobe Illustrator 21.1.0, SVG Export Plug-In . SVG Version: 6.00 Build 0)  -->
<svg version="1.1" id="Layer_1" xmlns="http://www.w3.org/2000/svg" xmlns:xlink="http://www.w3.org/1999/xlink" x="0px" y="0px"
	 viewBox="0 0 600 600" style="enable-background:new 0 0 600 600;" xml:space="preserve">
<style type="text/css">
	.st0{fill:#F6A154;}
</style>
<polygon class="st0" points="0,600 1.8,600 0,598.2 "/>
<polygon class="st0" points="0,589.7 10.3,600 13.1,600 0,586.9 "/>
<polygon class="st0" points="0,578.4 21.6,600 24.4,600 0,575.6 "/>
<polygon class="st0" points="0,567.1 32.9,600 35.7,600 0,564.3 "/>
<polygon class="st0" points="0,555.8 44.2,600 47,600 0,553 "/>
<polygon class="st0" points="0,544.5 55.5,600 58.4,600 0,541.6 "/>
<polygon class="st0" points="0,533.2 66.8,600 69.7,600 0,530.3 "/>
<polygon class="st0" points="0,521.8 78.2,600 81,600 0,519 "/>
<polygon class="st0" points="0,510.5 89.5,600 92.3,600 0,507.7 "/>
<polygon class="st0" points="0,499.2 100.8,600 103.6,600 0,496.4 "/>
<polygon class="st0" points="0,487.9 112.1,600 114.9,600 0,485.1 "/>
<polygon class="st0" points="0,476.6 123.4,600 126.2,600 0,473.8 "/>
<polygon class="st0" points="0,465.3 134.7,600 137.6,600 0,462.4 "/>
<polygon class="st0" points="0,454 146,600 148.9,600 0,451.1 "/>
<polygon class="st0" points="0,442.6 157.4,600 160.2,600 0,439.8 "/>
<polygon class="st0" points="0,431.3 168.7,600 171.5,600 0,428.5 "/>
<polygon class="st0" points="0,420 180,600 182.8,600 0,417.2 "/>
<polygon class="st0" points="0,408.7 191.3,600 194.1,600 0,405.9 "/>
<polygon class="st0" points="0,397.4 202.6,600 205.4,600 0,394.6 "/>
<polygon class="st0" points="0,386.1 213.9,600 216.7,600 0,383.3 "/>
<polygon class="st0" points="0,374.8 225.2,600 228.1,600 0,371.9 "/>
<polygon class="st0" points="0,363.5 236.5,600 239.4,600 0,360.6 "/>
<polygon class="st0" points="0,352.1 247.9,600 250.7,600 0,349.3 "/>
<polygon class="st0" points="0,340.8 259.2,600 262,600 0,338 "/>
<polygon class="st0" points="0,329.5 270.5,600 273.3,600 0,326.7 "/>
<polygon class="st0" points="0,318.2 281.8,600 284.6,600 0,315.4 "/>
<polygon class="st0" points="0,306.9 293.1,600 295.9,600 0,304.1 "/>
<polygon class="st0" points="0,295.6 304.4,600 307.3,600 0,292.7 "/>
<polygon class="st0" points="0,284.3 315.7,600 318.6,600 0,281.4 "/>
<polygon class="st0" points="0,272.9 327.1,600 329.9,600 0,270.1 "/>
<polygon class="st0" points="0,261.6 338.4,600 341.2,600 0,258.8 "/>
<polygon class="st0" points="0,250.3 349.7,600 352.5,600 0,247.5 "/>
<polygon class="st0" points="0,239 361,600 363.8,600 0,236.2 "/>
<polygon class="st0" points="0,227.7 372.3,600 375.1,600 0,224.9 "/>
<polygon class="st0" points="0,216.4 383.6,600 386.5,600 0,213.5 "/>
<polygon class="st0" points="0,205.1 394.9,600 397.8,600 0,202.2 "/>
<polygon class="st0" points="0,193.7 406.3,600 409.1,600 0,190.9 "/>
<polygon class="st0" points="0,182.4 417.6,600 420.4,600 0,179.6 "/>
<polygon class="st0" points="0,171.1 428.9,600 431.7,600 0,168.3 "/>
<polygon class="st0" points="0,159.8 440.2,600 443,600 0,157 "/>
<polygon class="st0" points="0,148.5 451.5,600 454.3,600 0,145.7 "/>
<polygon class="st0" points="0,137.2 462.8,600 465.6,600 0,134.4 "/>
<polygon class="st0" points="0,125.9 474.1,600 477,600 0,123 "/>
<polygon class="st0" points="0,114.6 485.4,600 488.3,600 0,111.7 "/>
<polygon class="st0" points="0,103.2 496.8,600 499.6,600 0,100.4 "/>
<polygon class="st0" points="0,91.9 508.1,600 510.9,600 0,89.1 "/>
<polygon class="st0" points="0,80.6 519.4,600 522.2,600 0,77.8 "/>
<polygon class="st0" points="0,69.3 530.7,600 533.5,600 0,66.5 "/>
<polygon class="st0" points="0,58 542,600 544.8,600 0,55.2 "/>
<polygon class="st0" points="0,46.7 553.3,600 556.2,600 0,43.8 "/>
<polygon class="st0" points="0,35.4 564.6,600 567.5,600 0,32.5 "/>
<polygon class="st0" points="0,24 576,600 578.8,600 0,21.2 "/>
<polygon class="st0" points="0,12.7 587.3,600 590.1,600 0,9.9 "/>
<polygon class="st0" points="0,0 0,1.4 598.6,600 600,600 600,598.6 1.4,0 "/>
<polygon class="st0" points="9.9,0 600,590.1 600,587.3 12.7,0 "/>
<polygon class="st0" points="21.2,0 600,578.8 600,576 24,0 "/>
<polygon class="st0" points="32.5,0 600,567.5 600,564.6 35.4,0 "/>
<polygon class="st0" points="43.8,0 600,556.2 600,553.3 46.7,0 "/>
<polygon class="st0" points="55.2,0 600,544.8 600,542 58,0 "/>
<polygon class="st0" points="66.5,0 600,533.5 600,530.7 69.3,0 "/>
<polygon class="st0" points="77.8,0 600,522.2 600,519.4 80.6,0 "/>
<polygon class="st0" points="89.1,0 600,510.9 600,508.1 91.9,0 "/>
<polygon class="st0" points="100.4,0 600,499.6 600,496.8 103.2,0 "/>
<polygon class="st0" points="111.7,0 600,488.3 600,485.4 114.6,0 "/>
<polygon class="st0" points="123,0 600,477 600,474.1 125.9,0 "/>
<polygon class="st0" points="134.4,0 600,465.6 600,462.8 137.2,0 "/>
<polygon class="st0" points="145.7,0 600,454.3 600,451.5 148.5,0 "/>
<polygon class="st0" points="157,0 600,443 600,440.2 159.8,0 "/>
<polygon class="st0" points="168.3,0 600,431.7 600,428.9 171.1,0 "/>
<polygon class="st0" points="179.6,0 600,420.4 600,417.6 182.4,0 "/>
<polygon class="st0" points="190.9,0 600,409.1 600,406.3 193.7,0 "/>
<polygon class="st0" points="202.2,0 600,397.8 600,394.9 205.1,0 "/>
<polygon class="st0" points="213.5,0 600,386.5 600,383.6 216.4,0 "/>
<polygon class="st0" points="224.9,0 600,375.1 600,372.3 227.7,0 "/>
<polygon class="st0" points="236.2,0 600,363.8 600,361 239,0 "/>
<polygon class="st0" points="247.5,0 600,352.5 600,349.7 250.3,0 "/>
<polygon class="st0" points="258.8,0 600,341.2 600,338.4 261.6,0 "/>
<polygon class="st0" points="270.1,0 600,329.9 600,327.1 272.9,0 "/>
<polygon class="st0" points="281.4,0 600,318.6 600,315.7 284.3,0 "/>
<polygon class="st0" points="292.7,0 600,307.3 600,304.4 295.6,0 "/>
<polygon class="st0" points="304.1,0 600,295.9 600,293.1 306.9,0 "/>
<polygon class="st0" points="315.4,0 600,284.6 600,281.8 318.2,0 "/>
<polygon class="st0" points="326.7,0 600,273.3 600,270.5 329.5,0 "/>
<polygon class="st0" points="338,0 600,262 600,259.2 340.8,0 "/>
<polygon class="st0" points="349.3,0 600,250.7 600,247.9 352.1,0 "/>
<polygon class="st0" points="360.6,0 600,239.4 600,236.5 363.5,0 "/>
<polygon class="st0" points="371.9,0 600,228.1 600,225.2 374.8,0 "/>
<polygon class="st0" points="383.3,0 600,216.7 600,213.9 386.1,0 "/>
<polygon class="st0" points="394.6,0 600,205.4 600,202.6 397.4,0 "/>
<polygon class="st0" points="405.9,0 600,194.1 600,191.3 408.7,0 "/>
<polygon class="st0" points="417.2,0 600,182.8 600,180 420,0 "/>
<polygon class="st0" points="428.5,0 600,171.5 600,168.7 431.3,0 "/>
<polygon class="st0" points="439.8,0 600,160.2 600,157.4 442.6,0 "/>
<polygon class="st0" points="451.1,0 600,148.9 600,146 454,0 "/>
<polygon class="st0" points="462.4,0 600,137.6 600,134.7 465.3,0 "/>
<polygon class="st0" points="473.8,0 600,126.2 600,123.4 476.6,0 "/>
<polygon class="st0" points="485.1,0 600,114.9 600,112.1 487.9,0 "/>
<polygon class="st0" points="496.4,0 600,103.6 600,100.8 499.2,0 "/>
<polygon class="st0" points="507.7,0 600,92.3 600,89.5 510.5,0 "/>
<polygon class="st0" points="519,0 600,81 600,78.2 521.8,0 "/>
<polygon class="st0" points="530.3,0 600,69.7 600,66.8 533.2,0 "/>
<polygon class="st0" points="541.6,0 600,58.4 600,55.5 544.5,0 "/>
<polygon class="st0" points="553,0 600,47 600,44.2 555.8,0 "/>
<polygon class="st0" points="564.3,0 600,35.7 600,32.9 567.1,0 "/>
<polygon class="st0" points="575.6,0 600,24.4 600,21.6 578.4,0 "/>
<polygon class="st0" points="586.9,0 600,13.1 600,10.3 589.7,0 "/>
<polygon class="st0" points="598.2,0 600,1.8 600,0 "/>
</svg>
