<svg width="257" height="115" viewBox="0 0 257 115" fill="none" xmlns="http://www.w3.org/2000/svg">
<path d="M75.562 64.6152C75.562 53.3294 84.3824 44.6254 95.4673 44.6254C106.552 44.6254 115.451 53.3294 115.451 64.6152C115.451 75.8963 106.552 84.6054 95.4673 84.6054C84.3826 84.6054 75.562 75.8964 75.562 64.6152ZM105.722 64.6152C105.722 58.4785 101.272 54.1636 95.4673 54.1636C89.7369 54.1636 85.2919 58.4783 85.2919 64.6152C85.2919 70.7475 89.7369 75.0623 95.4673 75.0623C101.272 75.0625 105.722 70.7474 105.722 64.6152Z" fill="white"/>
<path d="M152.8 60.2959V83.5431H143.07V61.5076C143.07 56.3585 139.98 53.7119 135.604 53.7119C130.857 53.7119 127.313 56.5123 127.313 63.0964V83.5431H117.587V45.6832H127.313V49.9234C129.572 46.5171 133.498 44.6254 138.546 44.6254C146.541 44.6255 152.8 50.2265 152.8 60.2959Z" fill="white"/>
<path d="M168.19 45.3078V45.6853H173.217V55.0744H168.19V83.5451H158.46V55.0744H153.45V45.6853H158.46V45.3078C158.46 34.856 164.191 28.724 176.181 29.4832V38.8679C171.128 38.4906 168.19 40.1589 168.19 45.3078Z" fill="white"/>
<path d="M213.362 45.683V83.5428H203.637V79.0743C200.923 82.4805 196.849 84.6054 191.346 84.6054C181.32 84.6054 173.023 75.8963 173.023 64.6154C173.023 53.3296 181.32 44.6254 191.346 44.6254C196.849 44.6254 200.923 46.7408 203.637 50.1518V45.6832L213.362 45.683ZM203.637 64.6152C203.637 58.2501 199.188 53.9352 193.155 53.9352C187.198 53.9352 182.748 58.2499 182.748 64.6152C182.748 70.971 187.198 75.2905 193.155 75.2905C199.188 75.2905 203.637 70.971 203.637 64.6152Z" fill="white"/>
<path d="M256.002 64.6164C256.002 75.8975 247.705 84.6065 237.6 84.6065C232.096 84.6065 228.102 82.5608 225.388 79.0753V83.5439H215.663V30.5402H225.388V50.1527C228.102 46.6671 232.096 44.6263 237.6 44.6263C247.705 44.6264 256.002 53.3307 256.002 64.6164ZM246.272 64.6164C246.272 58.2513 241.822 53.9364 235.79 53.9364C229.837 53.9364 225.388 58.2512 225.388 64.6164C225.388 70.9723 229.837 75.2918 235.79 75.2918C241.822 75.2918 246.272 70.9721 246.272 64.6164Z" fill="white"/>
<path d="M56.6862 29.4828C40.7015 29.4828 29.241 41.5187 29.241 57.0401C29.241 72.4915 40.7015 84.6067 56.6862 84.6067C64.6588 84.6067 71.6861 81.1847 76.4611 75.8199L69.1184 68.6061C66.3587 72.1556 61.8871 74.3835 56.6862 74.3835C46.3577 74.3835 39.5741 67.189 39.5741 57.0401C39.5741 46.8214 46.3577 39.6267 56.6862 39.6267C62.3254 39.6267 67.0884 42.2099 69.7924 46.375L78.6187 41.0135C73.9525 34.0358 65.8867 29.4828 56.6862 29.4828Z" fill="white"/>
<path d="M56.7914 0C25.4766 0 -0.000366211 25.5754 -0.000366211 57.0131C-0.000366211 88.4508 25.4766 114.026 56.7914 114.026H254.252V105.255H56.7914C30.2939 105.255 8.73683 83.613 8.73683 57.0131C8.73683 30.4132 30.2939 8.77125 56.7914 8.77125C72.7792 8.77125 87.7576 16.8525 96.6475 30.0613L104.127 25.5178C93.6538 9.69714 75.8296 0 56.7914 0Z" fill="#F26A55"/>
<path d="M56.7914 14.0342C33.1847 14.0342 13.9791 33.3137 13.9791 57.0133C13.9791 80.7129 33.1847 99.9924 56.7914 99.9924H254.252V91.2212H56.7914C38.0022 91.2212 22.7163 75.875 22.7163 57.0133C22.7163 38.1516 38.0022 22.8054 56.7914 22.8054C67.8978 22.8054 78.3076 28.3157 84.6541 37.3469L92.1496 32.7938C84.2141 21.1517 70.9498 14.0342 56.7914 14.0342Z" fill="#F9944C"/>
</svg>
