<?xml version="1.0" encoding="utf-8"?>
<!-- Generator: Adobe Illustrator 27.0.0, SVG Export Plug-In . SVG Version: 6.00 Build 0)  -->
<svg version="1.1" id="Layer_1" xmlns="http://www.w3.org/2000/svg" xmlns:xlink="http://www.w3.org/1999/xlink" x="0px" y="0px"
	 viewBox="0 0 20 20" style="enable-background:new 0 0 20 20;" xml:space="preserve">
<style type="text/css">
	.st0{fill:#F26A55;}
</style>
<path class="st0" d="M9,16.5c0,0.55,0.45,1,1,1s1-0.45,1-1H9z M10,3l0.71-0.71c-0.39-0.39-1.02-0.39-1.41,0L10,3z M13.79,8.21
	c0.39,0.39,1.02,0.39,1.41,0c0.39-0.39,0.39-1.02,0-1.41L13.79,8.21z M4.79,6.79c-0.39,0.39-0.39,1.02,0,1.41
	c0.39,0.39,1.02,0.39,1.41,0L4.79,6.79z M11,16.5V3H9v13.5H11z M9.29,3.71l4.5,4.5l1.41-1.41l-4.5-4.5L9.29,3.71z M9.29,2.29
	l-4.5,4.5l1.41,1.41l4.5-4.5L9.29,2.29z"/>
</svg>
