<svg width="952" height="535" viewBox="0 0 952 535" fill="none" xmlns="http://www.w3.org/2000/svg">
<rect width="951.111" height="535" fill="white"/>
<path d="M723.969 253.2C723.969 258.311 719.944 262.32 714.706 262.32C709.524 262.32 705.386 258.311 705.386 253.2C705.386 248.199 709.524 244.189 714.706 244.189C719.944 244.189 723.969 248.199 723.969 253.2ZM707.701 253.2C707.701 257.209 710.681 260.398 714.761 260.398C718.734 260.398 721.656 257.212 721.656 253.255C721.656 249.245 718.735 246.005 714.707 246.005C710.679 246.005 707.702 249.242 707.702 253.2H707.701ZM713.27 257.923H711.175V248.913C712.002 248.748 713.159 248.638 714.648 248.638C716.36 248.638 717.132 248.913 717.791 249.297C718.287 249.682 718.673 250.396 718.673 251.275C718.673 252.264 717.901 253.032 716.798 253.362V253.472C717.683 253.801 718.177 254.46 718.455 255.672C718.731 257.045 718.896 257.594 719.117 257.924H716.856C716.581 257.594 716.412 256.77 716.14 255.727C715.974 254.738 715.426 254.299 714.265 254.299H713.273V257.924H713.27V257.923ZM713.325 252.815H714.317C715.475 252.815 716.412 252.431 716.412 251.497C716.412 250.673 715.809 250.124 714.482 250.124C713.931 250.124 713.545 250.179 713.325 250.234V252.815V252.815Z" fill="white"/>
<path d="M783.976 163H169.024C157.413 163 148 172.377 148 183.944V351.056C148 362.623 157.413 372 169.024 372H783.976C795.587 372 805 362.623 805 351.056V183.944C805 172.377 795.587 163 783.976 163Z" fill="black"/>
<path d="M253.68 303.645C253.919 299.718 254.158 293.891 254.158 288.773V219.169H264.547V255.34H264.787C268.485 248.913 275.176 244.752 284.494 244.752C298.826 244.752 308.981 256.649 308.857 274.139C308.857 294.724 295.839 304.954 282.941 304.954C274.583 304.954 267.893 301.741 263.592 294.124H263.233L262.756 303.645H253.68V303.645ZM264.552 280.566C264.552 281.875 264.791 283.185 265.03 284.37C267.061 291.625 273.149 296.624 280.795 296.624C291.782 296.624 298.352 287.702 298.352 274.492C298.352 262.952 292.379 253.075 281.153 253.075C273.985 253.075 267.299 257.954 265.149 265.928C264.91 267.118 264.552 268.546 264.552 270.212V280.566V280.566Z" fill="white"/>
<path d="M354.144 303.645L353.308 296.39H352.949C349.724 300.908 343.516 304.954 335.273 304.954C323.569 304.954 317.596 296.747 317.596 288.416C317.596 274.497 330.016 266.88 352.352 266.999V265.809C352.352 261.049 351.038 252.484 339.215 252.484C333.839 252.484 328.228 254.15 324.167 256.768L321.777 249.87C326.556 246.775 333.481 244.752 340.768 244.752C358.445 244.752 362.746 256.768 362.746 268.308V289.844C362.746 294.838 362.985 299.718 363.701 303.645H354.144V303.645ZM352.591 274.259C341.126 274.021 328.109 276.044 328.109 287.226C328.109 294.006 332.644 297.223 338.02 297.223C345.547 297.223 350.321 292.463 351.994 287.579C352.352 286.512 352.591 285.323 352.591 284.247V274.259L352.591 274.259Z" fill="white"/>
<path d="M379.719 219.169H390.228V303.645H379.719V219.169Z" fill="white"/>
<path d="M406.48 292.938C409.586 294.961 415.077 297.104 420.333 297.104C427.979 297.104 431.559 293.3 431.559 288.54C431.559 283.537 428.572 280.804 420.811 277.952C410.418 274.263 405.524 268.55 405.524 261.652C405.524 252.373 413.05 244.756 425.47 244.756C431.324 244.756 436.457 246.423 439.683 248.327L437.054 255.943C434.784 254.515 430.603 252.611 425.231 252.611C419.023 252.611 415.559 256.182 415.559 260.466C415.559 265.226 419.023 267.364 426.546 270.22C436.581 274.029 441.714 279.023 441.714 287.587C441.714 297.703 433.833 304.839 420.094 304.839C413.763 304.839 407.913 303.292 403.851 300.912L406.48 292.938V292.938Z" fill="white"/>
<path d="M487.227 303.645L486.395 296.39H486.037C482.811 300.908 476.599 304.954 468.36 304.954C456.652 304.954 450.683 296.747 450.683 288.416C450.683 274.497 463.108 266.88 485.439 266.999V265.809C485.439 261.049 484.125 252.484 472.298 252.484C466.926 252.484 461.311 254.15 457.254 256.768L454.865 249.87C459.639 246.775 466.572 244.752 473.855 244.752C491.532 244.752 495.833 256.768 495.833 268.308V289.844C495.833 294.838 496.072 299.718 496.789 303.645H487.227V303.645ZM485.673 274.259C474.209 274.021 461.191 276.044 461.191 287.226C461.191 294.006 465.727 297.223 471.103 297.223C478.625 297.223 483.404 292.463 485.076 287.579C485.435 286.512 485.674 285.323 485.674 284.247V274.259L485.673 274.259Z" fill="white"/>
<path d="M512.802 261.647C512.802 255.697 512.682 250.817 512.328 246.061H521.523L521.996 255.34H522.359C525.584 249.865 530.956 244.752 540.509 244.752C548.399 244.752 554.372 249.513 556.876 256.292H557.111C558.907 253.079 561.173 250.584 563.566 248.794C567.031 246.176 570.85 244.752 576.35 244.752C583.991 244.752 595.336 249.751 595.336 269.736V303.645H585.062V271.045C585.062 259.982 581.009 253.317 572.522 253.317C566.549 253.317 561.894 257.72 560.102 262.838C559.628 264.266 559.266 266.166 559.266 268.074V303.65H549V269.145C549 259.986 544.938 253.321 536.934 253.321C530.367 253.321 525.589 258.557 523.912 263.79C523.314 265.337 523.08 267.122 523.08 268.907V303.65H512.806V261.648H512.801L512.802 261.647Z" fill="white"/>
<path d="M624.146 229.88C624.265 233.45 621.641 236.307 617.456 236.307C613.757 236.307 611.128 233.45 611.128 229.88C611.128 226.19 613.867 223.334 617.695 223.334C621.637 223.334 624.146 226.19 624.146 229.88H624.146ZM612.442 303.645V246.061H622.951V303.645H612.442Z" fill="white"/>
<path d="M679.809 294.724H679.566C676.464 300.436 670.017 304.954 660.698 304.954C647.198 304.954 636.208 293.296 636.208 275.805C636.208 254.269 650.181 244.752 662.367 244.752C671.327 244.752 677.3 249.156 680.159 254.745H680.402L680.756 246.062H690.668C690.433 250.937 690.314 255.935 690.314 261.886V327.201H679.805V294.724H679.809V294.724ZM679.809 269.379C679.809 267.951 679.69 266.284 679.336 264.975C677.778 258.549 672.163 253.074 664.283 253.074C653.42 253.074 646.845 262.238 646.845 275.206C646.845 286.631 652.341 296.619 663.929 296.619C670.73 296.619 676.588 292.458 678.973 285.198C679.446 283.77 679.809 281.747 679.809 280.2V269.378V269.379Z" fill="white"/>
</svg>
