<svg width="952" height="535" viewBox="0 0 952 535" fill="none" xmlns="http://www.w3.org/2000/svg">
<rect width="951.111" height="535" fill="white"/>
<path d="M296.733 128.767C220.74 128.767 157 191.12 157 265.472C157 342.217 220.74 402.177 296.733 402.177C375.177 402.177 436.465 339.825 436.465 265.472C436.465 191.12 375.177 128.767 296.733 128.767ZM171.704 265.472C171.704 248.688 174.156 231.894 181.513 215.11L242.801 375.795C201.132 356.609 171.714 315.834 171.714 265.472H171.704ZM296.723 390.187C284.461 390.187 272.209 387.785 259.948 385.393L296.723 277.472L335.95 380.599V383.001C326.141 387.795 311.437 390.197 296.723 390.197V390.187ZM313.879 207.914H328.583C335.94 207.914 333.488 198.316 328.583 198.316C328.583 198.316 308.974 200.718 294.26 200.718C281.999 200.718 259.938 198.316 259.938 198.316C252.581 198.316 252.581 207.914 259.938 207.914H272.199L291.808 260.678L264.842 342.217L220.74 207.914H235.444C242.801 207.914 240.349 198.316 235.444 198.316C235.444 198.316 215.836 200.718 201.122 200.718H193.765C215.836 167.14 255.053 145.551 299.185 145.551C331.055 145.551 362.925 157.542 384.986 176.728H382.534C370.272 176.728 360.473 186.326 360.473 198.316C360.473 207.914 365.378 217.502 372.725 227.1C377.629 234.296 382.534 243.884 382.534 260.678C382.534 270.266 380.082 284.658 372.725 301.452L360.473 339.825L313.889 207.914H313.879ZM360.453 373.393L399.67 265.472C407.027 248.688 409.48 234.296 409.48 222.306V210.316C419.289 227.1 424.184 248.688 424.184 270.276C424.184 311.05 397.218 351.815 360.443 373.403L360.453 373.393Z" fill="#13191E"/>
<path d="M563.926 203.12L534.508 284.658C532.056 294.246 529.604 303.844 527.151 313.442C527.151 303.844 524.699 294.256 519.794 284.658L490.377 203.12H453.602L507.533 339.825H549.212L603.144 203.12H563.926V203.12Z" fill="#13191E"/>
<path d="M620.35 203.12L610.54 229.502V339.825H647.315V203.12H620.35Z" fill="#13191E"/>
<path d="M782.123 219.904C772.314 205.512 760.062 200.718 742.896 200.718C725.73 200.718 713.478 207.914 703.669 222.306H701.217L696.312 205.522H664.442V406.971H701.217V344.618C701.217 342.216 701.217 335.03 698.764 325.432H701.217C711.026 337.422 723.278 342.216 737.992 342.216C747.801 342.216 757.6 339.814 767.409 332.628C774.766 327.834 782.113 318.236 787.018 308.648C791.923 296.658 794.375 284.668 794.375 270.276C796.827 248.688 791.923 231.904 782.113 219.914L782.123 219.904ZM733.097 313.442C723.288 313.442 715.941 311.04 711.036 303.854C706.131 296.658 703.679 287.07 703.679 272.678V267.884C703.679 255.894 706.131 246.296 711.036 239.11C715.941 234.316 723.298 229.522 730.645 229.522C740.454 229.522 745.349 231.924 750.253 239.11C755.158 246.296 757.61 255.894 757.61 270.286C760.063 299.07 750.253 313.452 733.097 313.452V313.442Z" fill="#13191E"/>
</svg>
