<svg width="952" height="535" viewBox="0 0 952 535" fill="none" xmlns="http://www.w3.org/2000/svg">
<rect width="951.111" height="535" fill="white"/>
<g clip-path="url(#clip0_676_41)">
<path d="M191.371 244.131V236.537L103.973 185.349C103.106 184.843 102 185.468 102 186.481V191.037C102 191.513 102.239 191.93 102.658 192.168L191.371 244.101V244.131Z" fill="#1D464E"/>
<path d="M244.068 222.036H250.853L273.689 134.638C273.898 133.804 273.27 133 272.404 133H268.338C267.741 133 267.233 133.417 267.053 133.983L244.068 222.036V222.036Z" fill="#1D464E"/>
<path d="M310.364 133.655L258.236 222.036H265.858L317.209 134.965C317.717 134.102 317.089 133 316.073 133H311.5C311.022 133 310.603 133.238 310.364 133.655Z" fill="#1D464E"/>
<path d="M220.903 222.036H227.688L204.702 133.983C204.553 133.417 204.015 133 203.417 133H199.352C198.485 133 197.858 133.804 198.067 134.638L220.873 222.036H220.903Z" fill="#1D464E"/>
<path d="M232.59 222.036H239.166V134.31C239.166 133.596 238.568 133 237.851 133H233.905C233.188 133 232.59 133.596 232.59 134.31V222.036V222.036Z" fill="#1D464E"/>
<path d="M102 341.712V346.268C102 347.281 103.106 347.906 103.973 347.4L191.371 296.242V288.648L102.658 340.581C102.269 340.819 102 341.236 102 341.712Z" fill="#1D464E"/>
<path d="M275.064 222.691C276.797 224.418 277.993 225.609 279.727 227.336L369.158 138.241C369.666 137.735 369.666 136.901 369.158 136.395C368.201 135.442 367.335 134.578 366.378 133.625C365.87 133.119 365.033 133.119 364.525 133.625L275.094 222.72L275.064 222.691Z" fill="#1D464E"/>
<path d="M369.756 191.067V186.511C369.756 185.498 368.65 184.873 367.783 185.379L280.384 236.537V244.131L369.098 192.198C369.487 191.96 369.756 191.543 369.756 191.067V191.067Z" fill="#1D464E"/>
<path d="M280.384 288.648V296.242L367.783 347.4C368.65 347.906 369.756 347.281 369.756 346.268V341.712C369.756 341.236 369.516 340.819 369.098 340.581L280.384 288.648Z" fill="#1D464E"/>
<path d="M280.384 281.293L368.112 304.014C368.949 304.222 369.756 303.597 369.756 302.733V298.684C369.756 298.088 369.337 297.582 368.769 297.403L280.384 274.504V281.264V281.293Z" fill="#1D464E"/>
<path d="M280.384 263.099V269.65H368.44C369.158 269.65 369.756 269.055 369.756 268.34V264.409C369.756 263.695 369.158 263.099 368.44 263.099H280.384V263.099Z" fill="#1D464E"/>
<path d="M280.384 251.456V258.216L368.769 235.316C369.337 235.168 369.756 234.632 369.756 234.036V229.986C369.756 229.123 368.949 228.497 368.112 228.706L280.384 251.426V251.456Z" fill="#1D464E"/>
<path d="M205.928 222.036H213.55L161.392 133.655C161.153 133.268 160.734 133 160.256 133H155.683C154.666 133 154.039 134.102 154.547 134.965L205.898 222.036H205.928Z" fill="#1D464E"/>
<path d="M239.166 310.714H232.59V398.439C232.59 399.154 233.188 399.749 233.905 399.749H237.851C238.568 399.749 239.166 399.154 239.166 398.439V310.714V310.714Z" fill="#1D464E"/>
<path d="M191.371 274.534L102.986 297.433C102.418 297.582 102 298.118 102 298.713V302.763C102 303.627 102.807 304.252 103.644 304.044L191.371 281.323V274.564V274.534Z" fill="#1D464E"/>
<path d="M250.853 310.714H244.068L267.053 398.767C267.203 399.332 267.741 399.749 268.338 399.749H272.404C273.27 399.749 273.898 398.945 273.689 398.112L250.883 310.714H250.853Z" fill="#1D464E"/>
<path d="M265.858 310.714H258.236L310.364 399.094C310.603 399.481 311.022 399.749 311.5 399.749H316.073C317.089 399.749 317.717 398.648 317.209 397.784L265.858 310.714Z" fill="#1D464E"/>
<path d="M369.158 394.508L279.727 305.413C277.993 307.14 276.797 308.332 275.064 310.059L364.495 399.154C365.003 399.66 365.84 399.66 366.348 399.154C367.305 398.201 368.171 397.337 369.128 396.384C369.636 395.878 369.636 395.044 369.128 394.538L369.158 394.508Z" fill="#1D464E"/>
<path d="M227.688 310.714H220.903L198.097 398.112C197.887 398.945 198.515 399.749 199.382 399.749H203.447C204.045 399.749 204.553 399.332 204.732 398.767L227.718 310.714H227.688Z" fill="#1D464E"/>
<path d="M103.315 269.65H191.371V263.099H103.315C102.598 263.099 102 263.695 102 264.409V268.34C102 269.055 102.598 269.65 103.315 269.65V269.65Z" fill="#1D464E"/>
<path d="M102.986 235.316L191.371 258.216V251.456L103.644 228.736C102.807 228.527 102 229.152 102 230.016V234.066C102 234.661 102.418 235.168 102.986 235.346V235.316Z" fill="#1D464E"/>
<path d="M196.692 310.059L192.029 305.413L102.628 394.508C102.12 395.015 102.12 395.848 102.628 396.355L105.437 399.154C105.916 399.63 106.753 399.66 107.291 399.154L196.722 310.059H196.692Z" fill="#1D464E"/>
<path d="M161.392 399.124L213.52 310.744H205.898L154.547 397.814C154.039 398.677 154.666 399.779 155.683 399.779H160.256C160.734 399.779 161.153 399.541 161.392 399.124Z" fill="#1D464E"/>
<path d="M102.628 138.241L192.029 227.336C193.763 225.609 194.958 224.418 196.692 222.691L107.261 133.625C106.753 133.119 105.916 133.119 105.407 133.625C104.451 134.578 103.584 135.442 102.628 136.395C102.12 136.901 102.12 137.735 102.628 138.241Z" fill="#1D464E"/>
<path d="M454.673 191.245C454.673 172.634 467.018 159.651 484.653 159.651C495.414 159.651 507.429 166.232 507.429 173.408C507.429 175.82 505.875 178.173 502.557 178.173C499.598 178.173 497.954 176.446 495.444 173.081C491.438 168.048 487.463 165.815 481.903 165.815C471.382 165.815 463.312 174.987 463.312 188.238C463.312 204.348 473.205 215.157 486.596 215.157C494.756 215.157 500.585 211.613 504.231 207.296C505.606 205.836 507.011 205.658 508.236 206.521C509.641 207.474 509.791 209.291 508.924 210.75C504.5 218.194 495.115 223.048 484.324 223.048C466.331 223.048 454.703 210.244 454.703 191.275L454.673 191.245Z" fill="#1D464E"/>
<path d="M510.986 219.892C510.986 218.849 511.584 218.492 512.81 217.807L515.081 216.944C516.725 216.259 517.413 215.633 517.413 213.132V165.636C517.413 162.51 516.636 161.914 514.364 161.319L512.63 160.812C511.584 160.366 511.076 159.86 511.076 159.085C511.076 158.222 511.524 157.686 512.63 157.269L522.883 153.1C524.796 152.326 525.931 152.921 525.931 155.095V213.162C525.931 215.663 526.529 216.288 528.263 216.973L530.445 217.837C531.67 218.522 532.268 218.879 532.268 219.921C532.268 220.964 531.76 221.648 529.997 221.648H513.228C511.495 221.648 510.957 220.964 510.957 219.921L510.986 219.892Z" fill="#1D464E"/>
<path d="M564.191 217.48V214.353C561.501 219.207 556.36 222.929 549.335 223.018C541.504 223.108 536.124 218.7 536.124 211.077C536.124 200.774 546.197 195.593 563.832 194.461V192.139C563.832 184.873 560.963 182.014 556.629 182.014C552.892 182.014 550.202 184.009 547.691 186.689C544.912 189.637 543.776 191.007 541.265 191.096C538.396 191.096 537.17 189.191 537.17 186.928C537.17 180.942 548.738 176.803 556.987 176.803C566.971 176.803 572.351 181.746 572.351 193.33V213.162C572.351 215.574 572.949 216.288 574.682 216.973L576.775 217.748C578.239 218.522 578.688 218.879 578.688 219.921C578.688 220.964 578 221.648 576.595 221.648H568.435C565.476 221.648 564.191 220.428 564.191 217.48V217.48ZM551.936 216.437C558.183 216.437 563.832 211.167 563.832 202.084V198.868C551.846 199.911 544.732 203.544 544.732 209.946C544.732 213.936 547.004 216.437 551.936 216.437Z" fill="#1D464E"/>
<path d="M583.56 219.892C583.56 218.849 583.918 218.492 585.473 217.718L587.565 216.944C589.299 216.259 589.896 215.633 589.896 213.132V188.625C589.896 186.124 589.209 185.498 587.475 184.903L585.204 184.307C584.068 183.801 583.649 183.354 583.649 182.491C583.649 181.716 584.008 181.032 585.114 180.764L595.097 177.22C596.921 176.535 597.787 176.863 597.787 179.036V185.707C600.836 179.662 605.439 176.803 610.55 176.803C614.376 176.803 616.708 178.888 616.708 182.163C616.708 184.932 614.974 186.928 612.374 186.928C609.325 186.928 608.548 184.664 605.678 184.664C602.301 184.664 598.385 188.982 598.385 196.337V212.953C598.385 215.544 599.073 216.229 601.673 216.854L605.409 217.718C607.053 218.075 607.502 218.671 607.502 219.713C607.502 220.844 607.053 221.619 605.17 221.619H585.712C584.068 221.619 583.53 220.934 583.53 219.892H583.56Z" fill="#1D464E"/>
<path d="M621.251 219.802C621.251 218.76 621.699 218.492 623.074 217.807L624.987 216.944C626.721 216.169 627.319 215.544 627.319 213.132V188.625C627.319 186.124 626.631 185.498 624.898 184.813L622.895 184.218C621.849 183.771 621.43 183.265 621.43 182.401C621.43 181.538 621.879 180.942 622.895 180.674L632.699 177.041C634.702 176.356 635.837 176.773 635.837 179.126V213.132C635.837 215.544 636.525 216.169 638.259 216.944L639.992 217.807C641.457 218.492 641.905 218.76 641.905 219.802C641.905 220.934 641.397 221.619 639.633 221.619H623.463C621.729 221.619 621.191 220.934 621.191 219.802H621.251ZM630.637 154.291C634.193 154.291 637.153 157.15 637.153 160.693C637.153 164.326 634.193 167.274 630.637 167.274C626.99 167.274 624.031 164.326 624.031 160.693C624.031 157.15 626.99 154.291 630.637 154.291Z" fill="#1D464E"/>
<path d="M647.046 219.802C647.046 218.76 647.495 218.403 648.959 217.807L651.141 216.944C652.875 216.259 653.473 215.544 653.473 213.132V183.116H648.003C646.359 183.116 645.821 181.895 645.821 180.615C645.821 179.394 646.329 178.203 648.003 178.203H653.383C651.978 175.523 650.155 171.622 650.155 166.947C650.155 159.949 655.625 152.743 666.564 152.743C672.034 152.743 678.461 156.018 678.461 160.872C678.461 163.135 676.996 164.684 674.635 164.684C672.542 164.684 671.257 163.82 669.075 161.468C666.804 158.966 665.16 158.103 662.828 158.103C659.869 158.103 657.956 160.425 657.956 164.773C657.956 169.18 659.6 173.528 661.782 178.203H670.57C672.214 178.203 672.752 179.424 672.752 180.615C672.752 181.925 672.244 183.116 670.57 183.116H661.961V213.162C661.961 215.663 662.738 216.527 665.339 217.063L668.986 217.748C670.629 218.105 670.988 218.79 670.988 219.832C670.988 220.874 670.48 221.648 668.806 221.648H649.258C647.524 221.648 646.986 220.964 646.986 219.832L647.046 219.802Z" fill="#1D464E"/>
<path d="M677.773 234.959C677.773 232.279 679.776 230.641 683.602 230.373C690.028 229.867 694.631 227.604 698.099 221.976L682.884 186.838C681.749 184.337 680.971 183.384 678.969 182.431L678.102 182.074C677.146 181.478 676.787 181.032 676.787 179.989C676.787 178.947 677.295 178.173 678.969 178.173H695.737C697.381 178.173 697.919 178.858 697.919 179.9C697.919 180.942 697.471 181.448 696.455 181.984L694.452 182.58C692.18 183.444 691.313 184.575 692.629 187.612L702.702 212.179L713.044 187.612C714.359 184.575 713.552 183.622 711.22 182.669L709.218 181.984C708.172 181.478 707.753 180.942 707.753 179.9C707.753 178.858 708.261 178.173 709.935 178.173H722.877C724.611 178.173 725.149 178.858 725.149 179.9C725.149 180.942 724.79 181.448 723.744 182.074L722.967 182.431C720.875 183.295 720.187 184.337 719.051 186.838L705.93 217.212C700.101 230.463 691.074 239.456 683.094 239.456C679.806 239.456 677.803 237.907 677.803 234.959H677.773Z" fill="#1D464E"/>
<path d="M729.334 219.802C729.334 218.76 729.782 218.492 731.157 217.807L733.07 216.944C734.804 216.169 735.401 215.544 735.401 213.132V188.625C735.401 186.124 734.714 185.498 732.98 184.813L730.978 184.218C729.931 183.771 729.513 183.265 729.513 182.401C729.513 181.538 729.961 180.942 730.978 180.674L740.782 177.041C742.784 176.356 743.92 176.773 743.92 179.126V213.132C743.92 215.544 744.608 216.169 746.341 216.944L748.075 217.807C749.539 218.492 749.988 218.76 749.988 219.802C749.988 220.934 749.48 221.619 747.716 221.619H731.546C729.812 221.619 729.274 220.934 729.274 219.802H729.334ZM738.719 154.291C742.276 154.291 745.235 157.15 745.235 160.693C745.235 164.326 742.276 167.274 738.719 167.274C735.073 167.274 732.113 164.326 732.113 160.693C732.113 157.15 735.073 154.291 738.719 154.291Z" fill="#1D464E"/>
<path d="M782.986 219.713C782.986 218.76 783.345 218.403 784.72 217.718L786.812 216.944C788.456 216.259 789.144 215.633 789.144 213.132V193.062C789.144 186.124 786.364 183.295 781.402 183.295C775.574 183.295 769.506 188.387 769.506 196.367V213.162C769.506 215.663 770.193 216.288 771.867 216.973L773.96 217.748C775.364 218.432 775.693 218.79 775.693 219.743C775.693 220.874 775.095 221.648 773.362 221.648H756.862C755.218 221.648 754.68 220.964 754.68 219.921C754.68 218.879 755.039 218.522 756.593 217.748L758.686 216.973C760.419 216.288 761.017 215.574 761.017 213.162V188.655C761.017 186.153 760.33 185.528 758.596 184.932L756.324 184.337C755.189 183.831 754.77 183.384 754.77 182.52C754.77 181.746 755.129 181.061 756.235 180.793L766.218 177.25C768.041 176.565 769.177 176.892 769.177 179.066V185.29C772.644 180.198 777.785 176.803 784.63 176.803C792.521 176.803 797.662 181.478 797.662 192.645V213.162C797.662 215.663 798.26 216.288 800.024 216.973L802.026 217.748C803.581 218.522 804.029 218.879 804.029 219.921C804.029 220.964 803.521 221.648 801.757 221.648H785.348C783.524 221.648 783.016 220.874 783.016 219.743L782.986 219.713Z" fill="#1D464E"/>
<path d="M806.062 231.326C806.062 227.515 809.529 224.656 814.311 222.512C810.934 221.47 808.841 219.058 808.841 216.02C808.841 212.12 811.8 209.44 817.091 207.802C812.129 204.943 809.11 199.762 809.11 193.181C809.11 183.741 816.404 176.833 827.194 176.833H827.702C839.09 177.012 839.778 170.252 845.845 170.252C848.117 170.252 849.492 171.711 849.492 174.064C849.492 176.833 847.22 180.287 836.55 178.917C841.93 181.687 845.397 186.868 845.397 193.211C845.397 203.424 837.745 210.273 827.164 210.273C825.849 210.273 824.564 210.184 823.428 210.005C817.599 210.363 815.686 212.328 815.686 214.085C815.686 215.484 816.822 216.259 819.333 216.259C825.43 216.259 831.408 214.264 838.881 214.264C846.353 214.264 850 217.628 850 223.971C850 234.691 837.476 239.545 823.159 239.545C813.265 239.545 806.032 236.865 806.032 231.416L806.062 231.326ZM824.474 234.364C834.637 234.364 841.691 230.373 841.691 225.46C841.601 222.601 839.598 221.827 836.221 221.827C831.707 221.827 826.477 222.601 821.276 222.959C817.181 224.686 814.58 226.949 814.58 229.54C814.58 232.994 818.227 234.393 824.474 234.393V234.364ZM829.256 205.181C833.172 205.181 837.327 202.769 837.327 196.188C837.327 190.054 833.172 181.806 825.43 181.806C820.827 181.806 817.27 184.486 817.27 190.888C817.27 197.201 821.515 205.181 829.256 205.181V205.181Z" fill="#1D464E"/>
<path d="M454.673 280.251C454.673 261.64 467.018 248.657 484.653 248.657C495.414 248.657 507.429 255.238 507.429 262.414C507.429 264.826 505.875 267.179 502.557 267.179C499.598 267.179 497.954 265.452 495.444 262.087C491.438 257.054 487.463 254.821 481.903 254.821C471.382 254.821 463.312 263.992 463.312 277.244C463.312 293.353 473.205 304.163 486.596 304.163C494.756 304.163 500.585 300.619 504.231 296.301C505.606 294.842 507.011 294.664 508.236 295.527C509.641 296.48 509.791 298.296 508.924 299.756C504.5 307.2 495.115 312.054 484.324 312.054C466.331 312.054 454.703 299.249 454.703 280.281L454.673 280.251Z" fill="#1D464E"/>
<path d="M514.304 288.976C514.304 275.219 523.241 265.779 536.184 265.779C549.485 265.779 558.004 275.308 558.004 288.976C558.004 302.555 549.066 311.994 536.184 311.994C522.883 311.994 514.304 302.555 514.304 288.976ZM537.947 306.128C544.194 306.128 549.335 301.542 549.335 292.46C549.335 281.383 543.776 271.586 534.301 271.586C527.874 271.586 523.002 276.082 523.002 285.254C523.002 296.51 528.562 306.128 537.947 306.128Z" fill="#1D464E"/>
<path d="M616.469 308.719C616.469 307.766 616.827 307.408 618.202 306.724L620.205 305.949C621.849 305.264 622.536 304.639 622.536 302.138V282.068C622.536 275.129 619.846 272.3 615.153 272.3C609.863 272.3 603.855 277.928 603.855 285.194V302.168C603.855 304.669 604.542 305.294 606.186 305.979L608.279 306.753C609.654 307.438 610.012 307.796 610.012 308.748C610.012 309.88 609.504 310.654 607.681 310.654H591.51C589.777 310.654 589.239 309.88 589.239 308.748C589.239 307.796 589.597 307.438 590.972 306.753L592.975 305.979C594.619 305.294 595.336 304.669 595.336 302.168V282.097C595.336 275.159 592.646 272.33 587.595 272.33C582.215 272.33 576.655 278.554 576.655 285.76V302.197C576.655 304.699 577.342 305.324 579.016 306.009L581.109 306.783C582.513 307.468 582.842 307.825 582.842 308.778C582.842 309.91 582.244 310.684 580.511 310.684H564.011C562.367 310.684 561.829 309.999 561.829 308.957C561.829 307.915 562.188 307.587 563.742 306.783L565.835 306.009C567.568 305.324 568.166 304.699 568.166 302.197V277.69C568.166 275.189 567.389 274.653 565.745 273.968L563.473 273.372C562.427 272.866 561.919 272.42 561.919 271.556C561.919 270.692 562.367 270.097 563.384 269.829L573.367 266.285C575.19 265.6 576.326 265.928 576.326 268.191V274.415C579.465 269.323 584.307 265.839 590.913 265.839C597.01 265.839 601.344 268.608 603.078 274.921C606.306 269.74 611.238 265.839 618.202 265.839C626.033 265.839 631.055 270.603 631.055 281.591V302.197C631.055 304.609 631.742 305.324 633.476 306.009L635.479 306.783C637.033 307.557 637.481 307.915 637.481 308.957C637.481 309.999 636.973 310.684 635.21 310.684H618.71C616.977 310.684 616.439 309.91 616.439 308.778L616.469 308.719Z" fill="#1D464E"/>
<path d="M653.204 307.319V318.486C653.204 320.987 653.801 321.702 657.119 322.476L660.258 323.161C661.902 323.518 662.35 324.114 662.35 325.156C662.35 326.288 661.842 327.062 660.018 327.062H640.56C638.826 327.062 638.288 326.377 638.288 325.335C638.288 324.292 638.737 323.935 640.291 323.161L642.383 322.387C644.027 321.702 644.715 321.076 644.715 318.575V277.631C644.715 275.129 643.938 274.504 642.204 273.908L639.932 273.313C638.796 272.807 638.378 272.36 638.378 271.496C638.378 270.633 638.826 270.037 639.932 269.769L649.676 266.226C651.5 265.541 652.636 265.868 652.636 268.132V272.896C655.924 268.489 660.527 265.809 666.893 265.809C677.415 265.809 685.993 274.563 685.993 288.41C685.993 303.299 677.564 312.054 666.265 312.054C661.065 312.054 656.521 310.327 653.233 307.379L653.204 307.319ZM665.369 306.634C672.841 306.634 677.265 300.827 677.265 291.15C677.265 281.115 672.841 271.764 664.054 271.764C658.135 271.764 653.293 276.946 653.204 284.926V293.681C653.204 301.036 659.122 306.664 665.369 306.664V306.634Z" fill="#1D464E"/>
<path d="M688.892 308.897C688.892 307.855 689.49 307.528 690.716 306.813L692.987 305.949C694.631 305.264 695.319 304.639 695.319 302.138V254.612C695.319 251.486 694.542 250.89 692.27 250.295L690.536 249.788C689.49 249.342 688.982 248.836 688.982 248.061C688.982 247.198 689.43 246.662 690.536 246.245L700.789 242.076C702.702 241.302 703.837 241.897 703.837 244.071V302.138C703.837 304.639 704.435 305.264 706.169 305.949L708.351 306.813C709.576 307.498 710.174 307.855 710.174 308.897C710.174 309.94 709.666 310.624 707.902 310.624H691.134C689.4 310.624 688.862 309.94 688.862 308.897H688.892Z" fill="#1D464E"/>
<path d="M712.595 289.661C712.595 275.904 721.622 265.779 733.548 265.779C741.977 265.779 748.135 269.591 750.675 278.077C751.901 282.395 750.317 285.343 746.431 286.564L722.011 294.009C724.103 301.185 729.393 304.907 736.687 304.907C741.648 304.907 745.205 303.448 748.314 300.738C749.539 299.785 750.586 299.517 751.542 300.143C752.499 300.828 752.229 302.317 751.632 303.508C749.031 308.6 741.648 311.994 734.176 311.994C720.695 311.994 712.625 302.644 712.625 289.661H712.595ZM721.114 290.018L736.328 284.39C739.616 283.169 741.2 281.8 741.2 279.447C741.2 275.814 737.912 271.139 732.173 271.139C726.165 271.139 720.964 276.231 720.964 286.207C720.964 287.517 721.054 288.797 721.144 290.018H721.114Z" fill="#1D464E"/>
<path d="M754.561 308.897C754.561 307.766 755.009 307.438 755.936 306.724L756.803 306.277C758.985 305.235 759.762 304.282 761.854 301.512L771.748 288.083L762.811 275.784C761.167 273.521 759.941 272.33 757.699 271.377L756.833 271.02C755.786 270.424 755.458 269.978 755.458 268.936C755.458 267.893 756.055 267.119 757.729 267.119H775.723C777.367 267.119 777.815 267.804 777.815 268.846C777.815 269.888 777.457 270.395 776.44 270.931L774.438 271.705C772.076 272.658 771.927 274.206 773.571 276.559L779.818 285.135L785.736 277.005C787.739 274.236 787.38 272.598 785.049 271.645L783.315 270.96C782.269 270.365 781.851 269.918 781.851 268.876C781.851 267.834 782.359 267.149 783.943 267.149H797.573C799.306 267.149 799.844 267.834 799.844 268.876C799.844 269.918 799.486 270.335 798.44 271.05L797.573 271.496C796.018 272.271 794.614 273.492 792.282 276.678L782.897 289.304L792.103 301.929C793.657 304.103 795.152 305.294 797.483 306.336L798.35 306.694C799.396 307.289 799.725 307.736 799.725 308.778C799.725 309.82 799.217 310.595 797.543 310.595H779.4C777.756 310.595 777.218 309.82 777.218 308.778C777.218 307.736 777.666 307.319 778.682 306.783L780.685 306.009C783.016 305.056 783.016 303.418 781.283 301.066L774.946 292.311L768.52 301.066C766.786 303.418 767.055 305.056 768.789 305.92L771.06 306.783C772.106 307.289 772.465 307.825 772.465 308.868C772.465 309.82 772.017 310.595 770.373 310.595H756.892C755.159 310.595 754.621 309.91 754.621 308.868L754.561 308.897Z" fill="#1D464E"/>
<path d="M456.138 397.784C456.138 396.831 456.826 395.968 458.141 395.283L459.874 394.33C462.475 392.93 463.521 392.335 463.521 388.88V349.752C463.521 346.298 462.475 345.673 459.874 344.303L458.141 343.35C456.826 342.665 456.138 341.802 456.138 340.849C456.138 339.896 456.915 339.032 458.41 339.032H477.509C479.064 339.032 479.781 339.896 479.781 340.849C479.781 341.802 479.183 342.665 477.868 343.35L476.135 344.303C473.534 345.673 472.488 346.298 472.488 349.752V388.88C472.488 392.335 473.534 392.96 476.135 394.33L477.868 395.283C479.183 395.968 479.781 396.831 479.781 397.784C479.781 398.737 479.094 399.6 477.509 399.6H458.41C456.945 399.6 456.138 398.737 456.138 397.784Z" fill="#1D464E"/>
<path d="M484.205 378.756C484.205 363.599 492.455 354.785 504.53 354.785C509.133 354.785 513.557 356.601 516.964 359.728V344.422C516.964 341.057 516.187 340.521 513.916 339.658L511.405 338.794C510.359 338.199 509.94 337.841 509.94 337.067C509.94 336.114 510.389 335.608 511.405 335.251L522.524 331.112C524.437 330.337 525.483 330.933 525.483 332.928V390.995C525.483 393.079 525.842 394.032 527.575 394.717L530.445 395.848C531.581 396.355 531.999 396.891 531.999 397.844C531.999 398.796 531.401 399.66 529.996 399.66H521.567C519.146 399.66 518.011 398.439 518.011 396.116V393.436C514.633 398.201 509.94 401.06 503.335 401.06C492.484 401.06 484.235 392.305 484.235 378.816L484.205 378.756ZM506.084 395.015C512.152 395.015 516.935 389.565 516.935 381.674V373.962C516.935 365.296 511.016 360.115 504.261 360.115C496.609 360.115 492.873 366.249 492.873 375.004C492.873 385.396 497.207 394.985 506.084 394.985V395.015Z" fill="#1D464E"/>
<path d="M534.51 378.667C534.51 364.909 543.537 354.785 555.463 354.785C563.892 354.785 570.049 358.596 572.59 367.083C573.815 371.401 572.231 374.349 568.345 375.57L543.925 383.014C546.018 390.191 551.308 393.913 558.601 393.913C563.563 393.913 567.12 392.454 570.229 389.744C571.454 388.791 572.5 388.523 573.457 389.148C574.413 389.833 574.144 391.322 573.546 392.513C570.946 397.635 563.563 401 556.091 401C542.61 401 534.54 391.65 534.54 378.667H534.51ZM543.029 379.024L558.243 373.396C561.531 372.175 563.115 370.805 563.115 368.453C563.115 364.82 559.827 360.145 554.088 360.145C548.08 360.145 542.879 365.237 542.879 375.212C542.879 376.523 542.969 377.803 543.058 379.024H543.029Z" fill="#1D464E"/>
<path d="M607.083 395.461V392.335C604.393 397.188 599.252 400.911 592.228 401C584.396 401.089 579.016 396.682 579.016 389.059C579.016 378.756 589.089 373.575 606.724 372.443V370.091C606.724 362.825 603.855 359.966 599.521 359.966C595.785 359.966 593.095 361.961 590.584 364.641C587.804 367.589 586.668 368.959 584.157 369.048C581.288 369.048 580.062 367.143 580.062 364.88C580.062 358.894 591.63 354.755 599.88 354.755C609.863 354.755 615.243 359.698 615.243 371.282V391.114C615.243 393.526 615.841 394.24 617.575 394.925L619.667 395.7C621.131 396.474 621.58 396.831 621.58 397.873C621.58 398.916 620.892 399.6 619.487 399.6H611.327C608.368 399.6 607.083 398.38 607.083 395.461V395.461ZM594.828 394.419C601.075 394.419 606.724 389.148 606.724 380.066V376.85C594.738 377.892 587.625 381.525 587.625 387.928C587.625 391.918 589.896 394.419 594.828 394.419Z" fill="#1D464E"/>
<path d="M625.226 391.828C625.226 389.506 626.691 387.689 629.232 387.689C631.563 387.689 633.147 389 635.389 391.054C639.215 394.687 642.264 396.087 646.329 396.087C650.932 396.087 653.981 393.407 653.981 389.416C653.981 385.009 649.975 383.014 642.084 381.287C630.876 378.786 626.781 373.753 626.781 366.994C626.781 359.639 632.609 354.785 642.593 354.785C651.291 354.785 660.825 357.822 660.825 363.54C660.825 365.713 659.361 367.44 656.82 367.44C654.459 367.44 652.994 366.309 650.035 363.629C646.747 360.592 643.609 359.728 640.231 359.728C636.495 359.728 633.984 361.812 633.984 364.85C633.984 368.989 636.943 371.341 645.611 373.336C655.864 375.6 661.244 379.471 661.244 387.779C661.244 395.223 655.326 401.03 644.027 401.03C634.373 401.03 625.167 397.486 625.167 391.858L625.226 391.828Z" fill="#1D464E"/>
</g>
<defs>
<clipPath id="clip0_676_41">
<rect width="748" height="268" fill="white" transform="translate(102 133)"/>
</clipPath>
</defs>
</svg>
