<svg width="952" height="535" viewBox="0 0 952 535" fill="none" xmlns="http://www.w3.org/2000/svg">
<rect width="951.111" height="535" fill="white"/>
<path d="M770 141H182V202H770V141Z" fill="#00AAAD"/>
<path d="M770 212H182V462H770V212Z" fill="#00AAAD"/>
<path d="M551 73H401V131H432.515V100.922H520.562V131H551V73Z" fill="#00AAAD"/>
<path d="M462.839 249.873V254.236H455.923V280.812H450.818V254.236H444V249.873H462.83H462.839Z" fill="#003233"/>
<path d="M470.214 249.873V262.723H479.355V249.873H484.46V280.812H479.355V267.034H470.214V280.812H465.109V249.873H470.214Z" fill="#003233"/>
<path d="M508.069 249.873V253.953H495.5V262.856H505.384V266.936H495.5V276.634H508.307V280.812H490.404V249.873H508.077H508.069Z" fill="#003233"/>
<path d="M247.403 335.681C246.644 344.999 241.397 352.524 231.32 352.524C217.312 352.524 214 339.346 214 328.854C214 320.499 216.067 305.113 231.461 305.113C238.43 305.113 241.883 308.284 243.95 311.322C246.644 315.323 246.988 320.154 247.191 322.919L238.015 323.607C237.741 319.951 237.326 313.327 231.523 313.327C225.72 313.327 224.625 320.295 224.625 329.613C224.625 337.341 225.526 344.31 231.523 344.31C236.972 344.31 237.732 337.545 238.076 335.063L247.394 335.681H247.403Z" fill="white"/>
<path d="M285.019 328.854C285.019 337.271 283.5 352.524 268.318 352.524C253.135 352.524 251.616 338.101 251.616 328.854C251.616 319.607 253.338 305.113 268.318 305.113C283.297 305.113 285.019 319.262 285.019 328.854ZM262.241 328.854C262.241 338.719 263.204 344.31 268.318 344.31C273.432 344.31 274.394 338.578 274.394 328.854C274.394 319.13 273.564 313.327 268.318 313.327C263.071 313.327 262.241 318.847 262.241 328.854Z" fill="white"/>
<path d="M302.896 305.802L314.695 334.374V305.802H322.565V351.835H313.521L299.513 318.502V351.835H291.644V305.802H302.896Z" fill="white"/>
<path d="M354.317 305.802V314.431H344.928V351.835H334.85V314.431H325.674V305.802H354.317Z" fill="white"/>
<path d="M385.856 305.802V313.742H367.98V324.367H381.855V332.307H367.98V343.621H385.856V351.835H357.902V305.802H385.856Z" fill="white"/>
<path d="M401.666 305.802L413.466 334.374V305.802H421.335V351.835H412.291L398.283 318.502V351.835H390.414V305.802H401.666Z" fill="white"/>
<path d="M453.078 305.802V314.431H443.689V351.835H433.612V314.431H424.435V305.802H453.078Z" fill="white"/>
<path d="M494.006 319.05C493.459 317.39 492.143 313.318 487.523 313.318C484.141 313.318 482.692 315.667 482.692 317.531C482.692 320.702 485.73 321.806 490.632 323.678C495.808 325.683 503.333 328.509 503.333 337.827C503.333 345.697 497.813 352.524 486.976 352.524C483.664 352.524 478.691 351.906 474.964 347.693C472.412 344.725 471.581 341.899 471.034 339.894L479.866 337.412C480.413 339.479 481.729 344.31 487.25 344.31C490.703 344.31 493.114 342.376 493.114 339.338C493.114 336.096 490.217 334.78 486.764 333.544C480.484 331.265 472.888 328.571 472.888 319.191C472.888 312.011 477.517 305.113 487.585 305.113C499.041 305.113 501.461 312.77 502.423 315.809L494.006 319.05Z" fill="white"/>
<path d="M534.449 305.802V314.431H525.06V351.835H514.983V314.431H505.806V305.802H534.449Z" fill="white"/>
<path d="M552.466 305.802C557.094 305.802 561.572 305.802 565.096 309.732C567.516 312.426 568.408 316.082 568.408 319.739C568.408 327.882 564.195 330.364 561.917 331.751L570.404 351.835H559.364L553.217 333.685H548.112V351.835H538.034V305.802H552.457H552.466ZM548.121 313.256V326.231H552.607C556.953 326.231 558.543 323.404 558.543 319.606C558.543 313.256 553.915 313.256 552.192 313.256H548.121Z" fill="white"/>
<path d="M593.951 305.802L607.067 351.835H596.786L594.437 342.376H581.533L579.254 351.835H569.936L583.741 305.802H593.951ZM592.573 334.444L587.945 315.676L583.458 334.444H592.564H592.573Z" fill="white"/>
<path d="M633.148 305.802V314.431H623.759V351.835H613.682V314.431H604.505V305.802H633.148Z" fill="white"/>
<path d="M664.688 305.802V313.742H646.811V324.367H660.687V332.307H646.811V343.621H664.688V351.835H636.734V305.802H664.688Z" fill="white"/>
<path d="M701.818 327.264V351.835H697.543L696.236 346.589C695.203 348.179 692.306 352.524 685.055 352.524C673.599 352.524 668.009 342.314 668.009 329.613C668.009 322.777 669.528 305.113 685.956 305.113C698.727 305.113 700.935 314.219 701.827 320.852L692.721 322.371C692.235 318.918 691.546 313.327 686.167 313.327C680.435 313.327 678.643 319.536 678.643 328.995C678.643 337.28 679.888 344.319 686.512 344.319C692.376 344.319 692.588 338.181 692.721 335.213H685.823V327.273H701.836L701.818 327.264Z" fill="white"/>
<path d="M713.971 305.802L720.463 322.645L727.361 305.802H737.226L724.455 332.369V351.835H714.378V332.369L702.852 305.802H713.962H713.971Z" fill="white"/>
<path d="M398.024 376.816V383.299H387.744V422.841H380.148V383.299H370V376.816H398.016H398.024Z" fill="#003233"/>
<path d="M433.574 399.868C433.574 409.328 431.436 423.68 417.146 423.68C402.855 423.68 400.515 410.564 400.515 399.868C400.515 389.173 403.279 375.986 417.075 375.986C430.871 375.986 433.574 389.102 433.574 399.868ZM410.389 386.965C408.667 390.895 408.526 397.042 408.526 399.868C408.526 402.695 408.729 408.771 410.389 412.702C411.696 415.669 413.498 417.391 417.155 417.391C421.023 417.391 422.675 415.042 423.708 412.702C425.43 408.63 425.572 402.35 425.572 399.868C425.572 396.698 425.369 390.824 423.708 386.965C422.675 384.686 421.085 382.275 417.084 382.275C413.083 382.275 411.493 384.483 410.389 386.965Z" fill="#003233"/>
<path d="M472.365 399.868C472.365 409.328 470.227 423.68 455.937 423.68C441.646 423.68 439.306 410.564 439.306 399.868C439.306 389.173 442.062 375.986 455.866 375.986C469.671 375.986 472.365 389.102 472.365 399.868ZM449.18 386.965C447.458 390.895 447.317 397.042 447.317 399.868C447.317 402.695 447.529 408.771 449.18 412.702C450.487 415.669 452.289 417.391 455.946 417.391C459.814 417.391 461.466 415.042 462.499 412.702C464.221 408.63 464.363 402.35 464.363 399.868C464.363 396.698 464.16 390.824 462.499 386.965C461.466 384.686 459.876 382.275 455.875 382.275C451.874 382.275 450.284 384.483 449.18 386.965Z" fill="#003233"/>
<path d="M487.203 376.816V416.429H503.489V422.85H479.607V376.816H487.203Z" fill="#003233"/>
<path d="M515.43 376.816V398.764L529.306 376.816H537.378L525.508 393.721L539.383 422.85H531.169L520.889 400.071L515.439 407.729V422.841H507.844V376.807H515.439L515.43 376.816Z" fill="#003233"/>
<path d="M550.697 376.816V422.85H543.101V376.816H550.697Z" fill="#003233"/>
<path d="M582.105 376.816V383.299H571.824V422.841H564.228V383.299H554.08V376.816H582.096H582.105Z" fill="#003233"/>
</svg>
