<svg width="952" height="535" viewBox="0 0 952 535" fill="none" xmlns="http://www.w3.org/2000/svg">
<rect width="951.111" height="535" fill="white"/>
<path d="M576.326 311.582H582.315V325.839C582.315 327.385 582.199 328.505 582.199 328.505H582.315C584.413 325.041 588.238 323.003 592.283 323.192C600.706 323.192 606.018 329.876 606.018 339.574C606.018 349.272 600.01 355.956 591.8 355.956C587.8 356.043 584.056 353.998 581.967 350.585H581.851C581.931 351.368 581.97 352.155 581.967 352.942V355.222H576.287L576.326 311.582ZM590.969 350.837C595.915 350.837 599.991 346.761 599.991 339.652C599.991 332.852 596.34 328.447 591.162 328.447C586.468 328.447 582.14 331.731 582.14 339.71C582.141 345.273 585.039 350.837 590.969 350.837Z" fill="#667A85"/>
<path d="M611.428 361.713C612.5 362.478 613.765 362.926 615.079 363.007C617.723 362.799 619.962 360.975 620.701 358.429L622.246 354.855L609.148 323.945H615.89L623.733 344.403C624.351 346.006 624.911 348.267 624.911 348.267H625.124C625.124 348.267 625.626 346.161 626.186 344.558L633.682 323.906H640.173L625.53 360.804C624.079 365.18 619.998 368.142 615.388 368.164C613.226 368.132 611.122 367.46 609.341 366.232L611.428 361.713Z" fill="#667A85"/>
<path d="M662.989 311.582H678.27C685.611 311.582 690.924 315.658 690.924 322.71C691.071 326.623 688.96 330.274 685.496 332.099V332.234C690.031 333.701 693.007 338.042 692.74 342.801C692.74 351.011 686.365 355.223 678.715 355.223H663.067L662.989 311.582ZM678.27 329.934C681.681 330.07 684.558 327.415 684.694 324.004C684.703 323.778 684.7 323.552 684.684 323.327C684.933 320.018 682.453 317.134 679.144 316.885C678.808 316.86 678.471 316.863 678.135 316.894H669.113V329.934H678.27ZM678.946 349.91C682.764 350.219 686.109 347.374 686.418 343.557C686.447 343.203 686.448 342.847 686.422 342.492C686.644 338.583 683.655 335.233 679.746 335.011C679.454 334.994 679.161 334.996 678.869 335.016H669.113V349.911H678.946V349.91Z" fill="#667A85"/>
<path d="M698.96 361.713C700.032 362.478 701.297 362.926 702.611 363.007C705.257 362.804 707.498 360.979 708.233 358.429L709.778 354.855L696.603 323.907H703.345L711.188 344.365C711.806 345.968 712.366 348.229 712.366 348.229H712.482C712.482 348.229 712.984 346.123 713.544 344.52L721.214 323.907H727.705L713.062 360.805C711.611 365.181 707.53 368.143 702.92 368.165C700.758 368.133 698.654 367.461 696.873 366.233L698.96 361.713Z" fill="#667A85"/>
<path d="M733.096 323.907H738.892V328.041C738.89 328.809 738.845 329.577 738.757 330.34H738.892C741.082 325.847 745.699 323.051 750.696 323.192C758.037 323.192 761.437 327.21 761.437 335.189V355.222H755.448V336.56C755.448 332.155 754.521 328.697 749.517 328.697C744.84 328.706 740.766 331.889 739.626 336.424C739.26 337.797 739.091 339.215 739.124 340.635V355.278H733.135L733.096 323.907Z" fill="#667A85"/>
<path d="M782.803 323.192C786.695 322.9 790.424 324.809 792.462 328.138H792.578C792.501 327.445 792.462 326.749 792.462 326.052V311.582H798.451V355.223H792.771V352.248C792.771 351.012 792.771 350.162 792.771 350.162H792.655C790.651 353.921 786.651 356.181 782.397 355.958C773.916 355.958 768.604 349.293 768.604 339.576C768.604 329.857 774.515 323.192 782.803 323.192ZM783.595 350.779C788.231 350.779 792.617 347.495 792.617 339.516C792.617 333.952 789.719 328.388 783.788 328.388C778.842 328.388 774.766 332.464 774.766 339.573C774.766 346.373 778.398 350.778 783.537 350.778L783.595 350.779Z" fill="#667A85"/>
<path d="M821.614 323.192C830.462 323.192 835.137 329.76 835.137 337.855C835.137 338.647 834.944 340.444 834.944 340.444H812.148C812.077 346.088 816.594 350.721 822.237 350.792C822.454 350.795 822.672 350.791 822.889 350.779C826.308 350.664 829.583 349.375 832.162 347.128L834.635 351.513C831.256 354.39 826.96 355.966 822.522 355.956C813.738 356.312 806.328 349.48 805.972 340.695C805.957 340.321 805.955 339.947 805.966 339.574C805.985 329.703 812.708 323.192 821.614 323.192ZM829.032 335.942C828.858 330.552 825.516 327.963 821.498 327.963C816.834 327.834 812.852 331.304 812.341 335.942H829.032Z" fill="#667A85"/>
<path d="M842.768 323.907H848.564V329.336C848.564 330.65 848.448 331.693 848.448 331.693H848.564C849.689 327.083 853.715 323.765 858.455 323.541C858.972 323.544 859.489 323.583 860 323.657V329.704C859.434 329.591 858.858 329.533 858.281 329.53C854.038 329.733 850.447 332.732 849.491 336.871C848.973 338.706 848.726 340.606 848.757 342.512V355.3H842.768V323.907Z" fill="#667A85"/>
<path d="M292.845 246.99H306.252V263.218C302.535 264.131 298.72 264.579 294.893 264.551C288.943 264.551 285.234 263.546 282.664 260.842C279.322 257.635 278.549 250.371 278.549 239.553C278.549 226.378 279.921 222.166 282.297 219.268C284.673 216.37 288.402 215.211 294.004 215.211C299.835 214.943 305.564 216.811 310.116 220.466L310.29 220.621L318.017 211.174L317.843 211C312.743 206.093 305.286 203.736 295.26 203.736C285.234 203.736 277.873 206.267 272.696 211.328C265.394 218.766 264.37 229.912 264.37 240.731C264.37 252.322 265.742 261.692 272.522 268.279C277.39 273.36 284.673 275.717 295.357 275.717C303.281 275.77 311.145 274.335 318.539 271.486H318.694V235.67H292.846V246.99H292.845Z" fill="#29333D"/>
<path d="M347.13 222.147C338.301 222.147 332.023 224.523 327.425 229.411L327.27 229.585L333.877 237.312L334.051 237.157C337.266 233.811 341.807 232.075 346.434 232.424C353.06 232.424 355.263 234.607 355.263 241.369V243.069H349.158C341.006 243.069 335.403 244.421 331.172 247.28C326.941 250.139 325.048 254.215 325.048 260.127C324.759 264.449 326.408 268.676 329.549 271.66C332.623 274.403 336.636 275.856 340.754 275.717C346.938 275.948 352.795 272.939 356.209 267.777V274.539H367.8V241.408C367.666 228.232 361.214 222.147 347.13 222.147ZM342.533 265.749C339.152 265.749 337.626 263.817 337.626 259.664C337.626 253.405 341.181 252.226 348.135 252.226H355.264C355.276 259.395 349.69 265.329 342.533 265.749Z" fill="#29333D"/>
<path d="M400.913 263.044C398.522 263.578 396.08 263.856 393.63 263.875C387.834 263.875 387.351 261.943 387.351 255.607V235.67H401.434V224.175H387.351V211H374.272V256.457C374.272 268.28 376.996 275.215 391.253 275.215C394.789 275.189 398.312 274.788 401.762 274.017H401.936L400.913 263.044Z" fill="#29333D"/>
<path d="M727.629 263.044C725.231 263.578 722.783 263.857 720.327 263.875C714.531 263.875 714.048 261.943 714.048 255.607V235.67H728.131V224.175H713.99V211H700.931V256.457C700.931 268.28 703.636 275.215 717.893 275.215C721.435 275.19 724.965 274.789 728.422 274.017H728.596L727.572 263.044H727.629Z" fill="#29333D"/>
<path d="M859.324 263.044H858.996C856.598 263.578 854.15 263.857 851.694 263.875C845.898 263.875 845.415 261.943 845.415 255.607V235.67H859.498V224.175H845.357V211H832.278V256.457C832.278 268.28 835.002 275.215 849.259 275.215C852.801 275.188 856.33 274.787 859.788 274.017H859.942L859.266 263.044H859.324Z" fill="#29333D"/>
<path d="M437.406 221.973C431.279 221.761 425.535 224.949 422.473 230.261V204.065H409.414V274.539H422.473V255.607C422.473 239.727 428.578 233.97 434.354 233.97C438.082 233.97 439.609 236.346 439.609 241.91V274.752H452.688V239.727C452.513 228.56 447.085 221.973 437.406 221.973Z" fill="#29333D"/>
<path d="M481.53 221.973C474.073 221.973 468.297 224.175 464.394 228.735C460.163 233.294 458.115 240.558 458.115 250.198C458.115 259.838 460.163 265.904 464.741 270.135C468.817 273.999 473.898 275.718 481.027 275.718C489.856 275.718 496.636 273.013 502.065 267.256L502.239 267.101L495.632 259.374L495.458 259.548C491.704 263.25 486.647 265.331 481.375 265.344C473.049 265.344 471.349 260.959 471.194 252.343L502.413 252.111V251.937C502.735 249.756 502.903 247.554 502.915 245.349C502.761 226.03 491.208 221.973 481.53 221.973ZM471.349 242.759C471.697 235.321 474.575 232.114 481.201 232.114C486.63 232.114 489.856 233.814 489.856 242.759H471.349Z" fill="#29333D"/>
<path d="M534.482 221.973C528.551 221.973 523.799 225.199 520.959 231.265L521.114 223.325H508.73V274.539H521.809V256.283C521.809 242.76 526.214 234.82 533.671 234.82C535.079 234.766 536.478 235.058 537.747 235.67H538.095L540.645 223.325H540.471C538.623 222.409 536.583 221.945 534.521 221.973H534.482Z" fill="#29333D"/>
<path d="M587.106 256.785C583.313 261.434 577.651 264.158 571.651 264.223C568.234 264.506 564.89 263.125 562.668 260.514C559.944 257.133 558.804 251.048 558.804 240.229C558.804 229.758 559.809 222.997 562.03 219.79C564.252 216.583 567.632 215.212 572.887 215.212C577.994 214.993 582.965 216.895 586.623 220.467L586.797 220.622L594.215 211.542L594.041 211.368C589.289 206.133 582.334 203.641 573.158 203.641C564.349 203.641 557.703 205.998 552.97 210.905C547.039 217.164 544.489 226.109 544.489 240.308C544.489 258.719 549.241 265.654 552.796 269.286C557.22 273.864 563.325 276.048 571.303 276.048C580.437 276.392 589.192 272.376 594.891 265.23L595.065 265.075L587.086 256.787H587.106V256.785Z" fill="#29333D"/>
<path d="M638.648 227.884C634.572 223.846 629.298 221.973 622.169 221.973C614.712 221.973 608.936 224.001 604.782 228.232C600.204 232.791 598.175 239.205 598.175 249.869C598.175 258.311 599.18 264.899 604.454 269.96C608.685 274.017 613.959 275.891 621.087 275.891C628.544 275.891 633.972 273.863 638.474 269.284C642.975 264.706 644.926 258.485 644.926 248.169C644.984 239.553 643.96 232.965 638.648 227.884ZM628.448 262.194C626.612 264.14 623.984 265.137 621.319 264.899C618.828 265.097 616.369 264.242 614.538 262.542C612.51 260.34 611.486 255.78 611.486 249.347C611.486 242.914 612.51 238.026 614.538 235.669C616.41 233.776 619.011 232.789 621.667 232.964C624.162 232.734 626.634 233.593 628.448 235.321C630.38 237.349 631.52 242.083 631.52 248.516C631.52 254.949 630.554 259.837 628.506 262.194H628.448Z" fill="#29333D"/>
<path d="M679.081 221.973C672.495 221.7 666.371 225.346 663.472 231.265V223.132H651.089V274.326H664.148V255.259C664.148 239.553 670.272 234.009 676.029 234.009C679.777 234.009 681.303 236.385 681.303 242.471V274.733H694.362V239.728C694.363 228.56 688.76 221.973 679.081 221.973Z" fill="#29333D"/>
<path d="M754.791 221.973C747.315 221.973 741.538 224.175 737.636 228.735C733.405 233.294 731.377 240.519 731.377 250.179C731.377 259.838 733.425 265.885 738.003 270.116C742.079 273.98 747.16 275.699 754.289 275.699C763.118 275.699 769.898 272.994 775.346 267.237L775.501 267.082L768.894 259.355L768.72 259.529C764.966 263.231 759.909 265.312 754.637 265.325C746.311 265.325 744.611 260.94 744.456 252.324L775.656 252.111V251.937C775.984 249.756 776.158 247.555 776.178 245.349C776.177 226.03 764.624 221.973 754.791 221.973ZM744.591 242.759C744.939 235.321 747.817 232.114 754.443 232.114C759.872 232.114 763.098 233.814 763.098 242.759H744.591Z" fill="#29333D"/>
<path d="M810.969 221.973C804.378 221.697 798.246 225.343 795.34 231.265V223.132H782.957V274.326H796.016V255.259C796.016 239.553 802.14 234.009 807.897 234.009C811.645 234.009 813.171 236.385 813.171 242.471V274.733H826.23V239.728C826.057 228.56 820.629 221.973 810.969 221.973Z" fill="#29333D"/>
<path d="M195.904 187.334C201.975 187.313 206.914 192.217 206.935 198.288C206.935 198.301 206.935 198.314 206.935 198.327C206.935 201.862 206.433 258.813 212.035 295.982C179.947 291.597 126.492 291.249 114.438 291.249H113.588C107.528 291.281 102.589 286.394 102.557 280.334C102.557 280.315 102.557 280.295 102.557 280.276V198.327C102.557 192.256 107.478 187.335 113.549 187.335C113.562 187.335 113.575 187.335 113.588 187.335H195.904V187.334ZM195.904 174.835H113.588C100.614 174.782 90.054 185.256 90 198.23C90 198.262 90 198.295 90 198.327V280.276C90.011 293.261 100.545 303.778 113.53 303.768C113.549 303.768 113.569 303.768 113.588 303.768H114.438C123.44 303.768 198.281 303.923 223.569 310.858C223.743 310.858 224.071 311.032 224.245 311.032C225.728 311.008 226.91 309.786 226.886 308.304C226.882 308.084 226.852 307.865 226.795 307.652C218.643 274.192 219.319 198.328 219.319 198.328C219.49 185.526 209.251 175.009 196.449 174.838C196.267 174.834 196.086 174.833 195.904 174.835Z" fill="#006EFF"/>
<path d="M162.29 212.004H117.49V224.503H162.29V212.004Z" fill="#006EFF"/>
<path d="M192.156 233.139H117.49V245.638H192.156V233.139Z" fill="#006EFF"/>
<path d="M177.223 254.428H117.49V266.927H177.223V254.428Z" fill="#006EFF"/>
</svg>
